<svg xmlns="http://www.w3.org/2000/svg" xml:space="preserve" width="current" height="current" fill="current" viewBox="0 0 24 24">
<path d="M23.5 24H.5a.5.5 0 0 1 0-1h23a.5.5 0 0 1 0 1z"/>
<path d="M6.5 24h-5a.5.5 0 0 1-.5-.5V18c0-.551.448-1 1-1h4c.552 0 1 .449 1 1v5.5a.5.5 0 0 1-.5.5zM2 23h4v-5H2v5zM14.5 24h-5a.5.5 0 0 1-.5-.5V12c0-.551.448-1 1-1h4c.552 0 1 .449 1 1v11.5a.5.5 0 0 1-.5.5zM10 23h4V12h-4v11zM22.5 24h-5a.5.5 0 0 1-.5-.5V14c0-.551.448-1 1-1h4c.552 0 1 .449 1 1v9.5a.5.5 0 0 1-.5.5zM18 23h4v-9h-4v9zM2.5 11a.5.5 0 0 1-.354-.853l5-5a.496.496 0 0 1 .475-.132l7.726 1.931 5.8-5.8a.5.5 0 0 1 .707.707l-6 6a.498.498 0 0 1-.475.131l-7.726-1.93-4.8 4.8A.498.498 0 0 1 2.5 11z"/>
<path d="M21.5 6a.5.5 0 0 1-.5-.5V2h-3.5a.5.5 0 0 1 0-1h4a.5.5 0 0 1 .5.5v4a.5.5 0 0 1-.5.5z"/>
</svg>