<svg xmlns="http://www.w3.org/2000/svg" xml:space="preserve" width="current" height="current" fill="current" viewBox="0 0 24 24">
<path d="M5.25 24h-3.5C.785 24 0 23.215 0 22.25V7.75C0 6.785.785 6 1.75 6h3.5C6.215 6 7 6.785 7 7.75v14.5C7 23.215 6.215 24 5.25 24zM1.75 7.5a.25.25 0 0 0-.25.25v14.5c0 .138.112.25.25.25h3.5a.25.25 0 0 0 .25-.25V7.75a.25.25 0 0 0-.25-.25h-3.5zM16.25 24h-3.5c-.965 0-1.75-.785-1.75-1.75v-11.5a.75.75 0 0 1 1.5 0v11.5c0 .138.112.25.25.25h3.5a.25.25 0 0 0 .25-.25v-9.5a.75.75 0 0 1 1.5 0v9.5c0 .965-.785 1.75-1.75 1.75z"/>
<path d="M10.75 24h-3.5c-.965 0-1.75-.785-1.75-1.75V1.75C5.5.785 6.285 0 7.25 0h3a.75.75 0 0 1 0 1.5h-3a.25.25 0 0 0-.25.25v20.5c0 .138.112.25.25.25h3.5a.25.25 0 0 0 .25-.25v-6.5a.75.75 0 0 1 1.5 0v6.5c0 .965-.785 1.75-1.75 1.75zM17 10c-2.757 0-5-2.243-5-5s2.243-5 5-5 5 2.243 5 5-2.243 5-5 5zm0-8.5c-1.93 0-3.5 1.57-3.5 3.5s1.57 3.5 3.5 3.5 3.5-1.57 3.5-3.5-1.57-3.5-3.5-3.5z"/>
<path d="M23.25 12a.744.744 0 0 1-.53-.22l-3.068-3.068a.75.75 0 1 1 1.061-1.061l3.068 3.068A.75.75 0 0 1 23.25 12zM.75 18.5h5.5V20H.75zM11.75 18.5h5.5V20h-5.5zM9 20a.75.75 0 0 1-.75-.75V4.75a.75.75 0 0 1 1.5 0v14.5A.75.75 0 0 1 9 20z"/>
</svg>