<svg xmlns="http://www.w3.org/2000/svg" xml:space="preserve" width="current" height="current" viewBox="0 0 24 24"><path d="M1.5 12C1.5 6.211 6.21 1.5 12 1.5c2.079 0 4.055.607 5.732 1.707L16.22 4.72A.75.75 0 0 0 16.75 6h4.5a.75.75 0 0 0 .75-.75V.75c0-.665-.806-1.004-1.28-.53l-1.914 1.914A11.89 11.89 0 0 0 12 0C5.383 0 0 5.383 0 12c0 1.173.173 2.339.513 3.466a.748.748 0 1 0 1.435-.433A10.517 10.517 0 0 1 1.5 12zM23.487 8.534a.75.75 0 1 0-1.436.433c.298.987.449 2.007.449 3.033 0 5.789-4.71 10.5-10.5 10.5-2.075 0-4.048-.604-5.722-1.7l1.505-1.522A.75.75 0 0 0 7.25 18h-4.5a.755.755 0 0 0-.75.758l.05 4.5c.006.666.819.99 1.283.519l1.878-1.899A11.885 11.885 0 0 0 12 24c6.617 0 12-5.383 12-12 0-1.173-.173-2.339-.513-3.466z"/></svg>